# Written by Marlamin's WoW Exporter. Original file: world/expansion06/doodads/dalaran/7dl_dalaran_jewelcraftinggemwhite01.m2
mtllib 7dl_dalaran_jewelcraftinggemwhite01.mtl
v 0.05210691 -0.006770505 -0.0476747
vt 0.8343343 -0.8929737
vn 0.394773400000 -0.802913800000 0.446635700000
v 0.09429295 -0.006770505 -3.311369E-08
vt 0.7420956 -0.8875965
vn 0.602478800000 -0.729032300000 -0.324855600000
v 0 -0.04284904 0
vt 0.8391706 -0.7905214
vn 0.000000000000 -1.000000000000 0.000000000000
v -0.04314015 0.01946335 0.07894132
vt 0.799182 -0.652963
vn -0.566337600000 -0.544163200000 -0.618989500000
v -0.08628034 0.01946335 0.03947068
vt 0.8923536 -0.6485649
vn -0.566337600000 -0.544163200000 -0.618989600000
v -0.05210691 -0.006770505 0.0476747
vt 0.844007 -0.688069
vn -0.566337600000 -0.544163200000 -0.618989600000
v 0.04314015 0.01946335 -0.07894132
vt 0.879159 -0.9280796
vn 0.566337600000 -0.544163200000 0.618989500000
v 0.08628034 0.01946335 -0.03947068
vt 0.7859876 -0.9324779
vn 0.566337600000 -0.544163200000 0.618989600000
v 0.05210691 -0.006770505 -0.0476747
vt 0.8343343 -0.8929737
vn 0.566337600000 -0.544163200000 0.618989600000
v -0.08628036 0.01946335 -0.03947063
vt 0.9811272 -0.7373382
vn -0.566337900000 -0.544163500000 0.618989100000
v -0.04314019 0.01946335 -0.07894131
vt 0.9767289 -0.8305098
vn -0.566337900000 -0.544163500000 0.618989100000
v -0.05210692 -0.006770505 -0.04767466
vt 0.9416229 -0.7856851
vn -0.566337900000 -0.544163500000 0.618989100000
v 0.08628036 0.01946335 0.03947063
vt 0.6972141 -0.8437046
vn 0.566337900000 -0.544163500000 -0.618989100000
v 0.04314019 0.01946335 0.07894131
vt 0.7016122 -0.7505329
vn 0.566337900000 -0.544163500000 -0.618989100000
v 0.05210692 -0.006770505 0.04767466
vt 0.7367182 -0.7953577
vn 0.566337900000 -0.544163500000 -0.618989100000
v 9.934108E-09 -0.006770505 0.08627234
vt 0.7508473 -0.7021981
vn 0.462817200000 -0.571779300000 -0.677398500000
v 0.05210692 -0.006770505 0.04767466
vt 0.7367182 -0.7953577
vn 0.475207100000 -0.602177300000 -0.641530000000
v 0.04314019 0.01946335 0.07894131
vt 0.7016122 -0.7505329
vn 0.469509800000 -0.588033000000 -0.658618200000
v 6.622738E-09 0.01946335 0.1071395
vt 0.718687 -0.6700377
vn 0.455418300000 -0.554206800000 -0.696741600000
v -0.08628034 0.01946335 0.03947068
vt 0.5634892 -0.6477816
vn -0.530111800000 0.619097500000 -0.579396000000
v -0.04314015 0.01946335 0.07894132
vt 0.4692602 -0.6519722
vn -0.530111900000 0.619097500000 -0.579395900000
v -0.05568088 0.03646047 0.04930552
vt 0.5177234 -0.6814746
vn -0.530111800000 0.619097500000 -0.579395900000
v -0.04314019 0.01946335 -0.07894131
vt 0.6551545 -0.8378661
vn -0.530112100000 0.619097800000 0.579395500000
v -0.08628036 0.01946335 -0.03947063
vt 0.6593447 -0.7436367
vn -0.530112100000 0.619097800000 0.579395500000
v -0.05568089 0.03646047 -0.04930549
vt 0.6256521 -0.7894028
vn -0.530112100000 0.619097800000 0.579395500000
v 0.08628034 0.01946335 -0.03947068
vt 0.4580424 -0.9434334
vn 0.494148100000 0.681264900000 0.540088700000
v 0.04314015 0.01946335 -0.07894132
vt 0.5520171 -0.9397141
vn 0.494148100000 0.681264900000 0.540088700000
v 0.05209782 0.03646047 -0.04930553
vt 0.5076813 -0.9073043
vn 0.494148100000 0.681264900000 0.540088700000
v 0.05209784 0.03646047 0.04930549
vt 0.3998223 -0.7994453
vn 0.494148300000 0.681265200000 -0.540088200000
v 0.04314019 0.01946335 0.07894131
vt 0.3674122 -0.7551095
vn 0.494148300000 0.681265200000 -0.540088200000
v 0.08628036 0.01946335 0.03947063
vt 0.3636933 -0.8490842
vn 0.494148300000 0.681265200000 -0.540088200000
v -0.004772107 0.04284901 0.06566789
vt 0.4450643 -0.7203311
vn 0.273944200000 0.833548900000 -0.479740300000
v 0.04314019 0.01946335 0.07894131
vt 0.3674122 -0.7551095
vn 0.263789000000 0.824547000000 -0.500537300000
v 0.05209784 0.03646047 0.04930549
vt 0.3998223 -0.7994453
vn 0.245184200000 0.807143700000 -0.537032300000
v 6.622738E-09 0.01946335 0.1071395
vt 0.3887526 -0.6744341
vn -0.174671100000 0.210481900000 -0.961866600000
v 0.04314015 0.01946335 -0.07894132
vt 0.5520171 -0.9397141
vn 0.263788800000 0.824546900000 0.500537500000
v -0.004772147 0.04284901 -0.06566789
vt 0.5867953 -0.8620622
vn 0.273944100000 0.833548900000 0.479740400000
v 0.05209782 0.03646047 -0.04930553
vt 0.5076813 -0.9073043
vn 0.245183800000 0.807143600000 0.537032700000
v -6.622738E-09 0.01946335 -0.1071395
vt 0.6326927 -0.9183739
vn 0.290493100000 0.847408700000 0.444423400000
v 0.08628036 0.01946335 0.03947063
vt 0.3636933 -0.8490842
vn 0.446572200000 0.848317500000 -0.284483300000
v 0.06700078 0.04284901 -2.980232E-08
vt 0.4377526 -0.8693739
vn 0.440959100000 0.849991800000 -0.288216900000
v 0.05209784 0.03646047 0.04930549
vt 0.3998223 -0.7994453
vn 0.488425600000 0.834291800000 -0.255729800000
v 0.1171 0.01946335 -3.311369E-08
vt 0.378269 -0.9288577
vn 0.401636800000 0.860428900000 -0.313607900000
v -0.004772107 0.04284901 0.06566789
vt 0.4450643 -0.7203311
vn -0.008371832000 0.981534300000 -0.191102900000
v -0.07654504 0.04284901 2.317958E-08
vt 0.5934848 -0.7136412
vn -0.189923700000 0.981798800000 -0.000000017115
v -0.05568088 0.03646047 0.04930552
vt 0.5177234 -0.6814746
vn -0.185959400000 0.961306100000 -0.203247800000
v 0.06700078 0.04284901 -2.980232E-08
vt 0.4377526 -0.8693739
vn 0.161709300000 0.986838500000 0.000000110268
v 0.05209784 0.03646047 0.04930549
vt 0.3998223 -0.7994453
vn 0.159241300000 0.971776900000 -0.174045500000
v -0.004772147 0.04284901 -0.06566789
vt 0.5867953 -0.8620622
vn -0.008372021000 0.981534300000 0.191103000000
v 0.05209782 0.03646047 -0.04930553
vt 0.5076813 -0.9073043
vn 0.159241100000 0.971776900000 0.174045600000
v -0.05568089 0.03646047 -0.04930549
vt 0.6256521 -0.7894028
vn -0.185959600000 0.961306100000 0.203247800000
v -0.09429295 -0.006770505 3.311369E-08
vt 0.9362456 -0.6934464
vn -0.629446600000 -0.582140300000 -0.514693700000
v -0.05210691 -0.006770505 0.0476747
vt 0.844007 -0.688069
vn -0.593859600000 -0.609254100000 -0.525490500000
v -0.08628034 0.01946335 0.03947068
vt 0.8923536 -0.6485649
vn -0.612314900000 -0.595473900000 -0.520078100000
v -0.1171 0.01946335 3.311369E-08
vt 0.9715927 -0.6580993
vn -0.650187000000 -0.565256800000 -0.507682600000
v -9.934108E-09 -0.006770505 -0.08627234
vt 0.9274938 -0.8788446
vn -0.462817200000 -0.571779300000 0.677398500000
v -0.05210692 -0.006770505 -0.04767466
vt 0.9416229 -0.7856851
vn -0.475207100000 -0.602177300000 0.641530000000
v -0.04314019 0.01946335 -0.07894131
vt 0.9767289 -0.8305098
vn -0.469509800000 -0.588033000000 0.658618200000
v -6.622738E-09 0.01946335 -0.1071395
vt 0.9596543 -0.911005
vn -0.455418300000 -0.554206800000 0.696741600000
v 0.09429295 -0.006770505 -3.311369E-08
vt 0.7420956 -0.8875965
vn 0.629446600000 -0.582140300000 0.514693700000
v 0.05210691 -0.006770505 -0.0476747
vt 0.8343343 -0.8929737
vn 0.593859600000 -0.609254100000 0.525490500000
v 0.08628034 0.01946335 -0.03947068
vt 0.7859876 -0.9324779
vn 0.612314900000 -0.595473900000 0.520078100000
v 0.1171 0.01946335 -3.311369E-08
vt 0.7067487 -0.9229436
vn 0.650187000000 -0.565256800000 0.507682600000
v -0.004772147 0.04284901 -0.06566789
vt 0.5867953 -0.8620622
vn -0.305645400000 0.797073500000 0.520821200000
v -0.04314019 0.01946335 -0.07894131
vt 0.6551545 -0.8378661
vn -0.297347700000 0.791183000000 0.534428500000
v -0.05568089 0.03646047 -0.04930549
vt 0.6256521 -0.7894028
vn -0.414333600000 0.789448400000 0.452878400000
v -6.622738E-09 0.01946335 -0.1071395
vt 0.6326927 -0.9183739
vn 0.200711100000 0.070123990000 0.977137500000
v -0.07654504 0.04284901 2.317958E-08
vt 0.5934848 -0.7136412
vn -0.493887000000 0.796049600000 0.349829500000
v -0.08628036 0.01946335 -0.03947063
vt 0.6593447 -0.7436367
vn -0.799160400000 0.140005700000 0.584586200000
v -0.1171 0.01946335 3.311369E-08
vt 0.6434624 -0.6636636
vn -0.769299700000 0.092653540000 0.632134000000
v 0.05209782 0.03646047 -0.04930553
vt 0.5076813 -0.9073043
vn 0.488425600000 0.834291600000 0.255730100000
v 0.06700078 0.04284901 -2.980232E-08
vt 0.4377526 -0.8693739
vn 0.440959100000 0.849991700000 0.288217300000
v 0.08628034 0.01946335 -0.03947068
vt 0.4580424 -0.9434334
vn 0.446572100000 0.848317400000 0.284483600000
v 0.1171 0.01946335 -3.311369E-08
vt 0.378269 -0.9288577
vn 0.954531000000 0.147446200000 -0.259094800000
v -0.05568088 0.03646047 0.04930552
vt 0.5177234 -0.6814746
vn -0.414333300000 0.789448400000 -0.452878700000
v -0.07654504 0.04284901 2.317958E-08
vt 0.5934848 -0.7136412
vn -0.493886900000 0.796049600000 -0.349829700000
v -0.08628034 0.01946335 0.03947068
vt 0.5634892 -0.6477816
vn -0.507442500000 0.790412900000 -0.343146600000
v -0.1171 0.01946335 3.311369E-08
vt 0.6434624 -0.6636636
vn -0.465389300000 0.807070000000 -0.363387900000
v -0.04314015 0.01946335 0.07894132
vt 0.4692602 -0.6519722
vn -0.297347400000 0.791183000000 -0.534428700000
v -0.004772107 0.04284901 0.06566789
vt 0.4450643 -0.7203311
vn -0.305645200000 0.797073500000 -0.520821300000
v 6.622738E-09 0.01946335 0.1071395
vt 0.3887526 -0.6744341
vn -0.322149700000 0.808278300000 -0.492854700000
v 0.06700078 0.04284901 -2.980232E-08
vt 0.4377526 -0.8693739
vn 0.000000000000 1.000000000000 0.000000000000
v -0.004772147 0.04284901 -0.06566789
vt 0.5867953 -0.8620622
vn 0.000000000000 1.000000000000 0.000000000000
v -0.004772124 0.04284901 6.208817E-10
vt 0.5157739 -0.7913521
vn 0.000000000000 1.000000000000 0.000000000000
v -0.004772107 0.04284901 0.06566789
vt 0.4450643 -0.7203311
vn 0.000000000000 1.000000000000 0.000000000000
v -0.07654504 0.04284901 2.317958E-08
vt 0.5934848 -0.7136412
vn 0.000000000000 1.000000000000 0.000000000000
v 9.934108E-09 -0.006770505 0.08627234
vt 0.7508473 -0.7021981
vn -0.274787200000 -0.887061500000 -0.370963400000
v -0.05210691 -0.006770505 0.0476747
vt 0.844007 -0.688069
vn -0.274787200000 -0.887061500000 -0.370963400000
v -9.934108E-09 -0.006770505 -0.08627234
vt 0.9274938 -0.8788446
vn 0.274787200000 -0.887061500000 0.370963400000
v 0.05210691 -0.006770505 -0.0476747
vt 0.8343343 -0.8929737
vn 0.274787200000 -0.887061500000 0.370963400000
v -0.09429295 -0.006770505 3.311369E-08
vt 0.9362456 -0.6934464
vn -0.340727400000 -0.890506800000 0.301500300000
v -0.05210692 -0.006770505 -0.04767466
vt 0.9416229 -0.7856851
vn -0.340727400000 -0.890506800000 0.301500300000
v 0.09429295 -0.006770505 -3.311369E-08
vt 0.7420956 -0.8875965
vn 0.340727400000 -0.890506800000 -0.301500300000
v 0.05210692 -0.006770505 0.04767466
vt 0.7367182 -0.7953577
vn 0.340727400000 -0.890506800000 -0.301500300000
v 0.05210692 -0.006770505 0.04767466
vt 0.7367182 -0.7953577
vn 0.415100800000 -0.799000700000 -0.435073900000
v 0.1171 0.01946335 -3.311369E-08
vt 0.7067487 -0.9229436
vn 0.954531000000 0.147446200000 -0.259094800000
v 0.08628036 0.01946335 0.03947063
vt 0.6972141 -0.8437046
vn 0.605224400000 -0.640606700000 -0.472574200000
v 9.934108E-09 -0.006770505 0.08627234
vt 0.7508473 -0.7021981
vn -0.265731600000 -0.725425600000 -0.634936500000
v -0.05210691 -0.006770505 0.0476747
vt 0.844007 -0.688069
vn -0.394773400000 -0.802913800000 -0.446635700000
v 6.622738E-09 0.01946335 0.1071395
vt 0.718687 -0.6700377
vn -0.174671100000 0.210481900000 -0.961866600000
v -0.04314015 0.01946335 0.07894132
vt 0.799182 -0.652963
vn -0.425024800000 -0.629712900000 -0.650242700000
v -0.09429295 -0.006770505 3.311369E-08
vt 0.9362456 -0.6934464
vn -0.602478800000 -0.729032300000 0.324855600000
v -0.1171 0.01946335 3.311369E-08
vt 0.9715927 -0.6580993
vn -0.769299700000 0.092653540000 0.632134000000
v -0.08628036 0.01946335 -0.03947063
vt 0.9811272 -0.7373382
vn -0.799160400000 0.140005700000 0.584586200000
v -0.05210692 -0.006770505 -0.04767466
vt 0.9416229 -0.7856851
vn -0.415100800000 -0.799000700000 0.435073900000
v -9.934108E-09 -0.006770505 -0.08627234
vt 0.9274938 -0.8788446
vn 0.265731600000 -0.725425600000 0.634936500000
v -6.622738E-09 0.01946335 -0.1071395
vt 0.9596543 -0.911005
vn 0.200711100000 0.070123990000 0.977137500000
v 0.04314015 0.01946335 -0.07894132
vt 0.879159 -0.9280796
vn 0.425024800000 -0.629712900000 0.650242700000
g 7dl_dalaran_jewelcraftinggemwhite01
o 7dl_dalaran_jewelcraftinggemwhite010
usemtl tex_1282691
s 1
f 1/1/1 2/2/2 3/3/3
f 4/4/4 5/5/5 6/6/6
f 7/7/7 8/8/8 9/9/9
f 10/10/10 11/11/11 12/12/12
f 13/13/13 14/14/14 15/15/15
f 16/16/16 17/17/17 18/18/18
f 18/18/18 19/19/19 16/16/16
f 20/20/20 21/21/21 22/22/22
f 23/23/23 24/24/24 25/25/25
f 26/26/26 27/27/27 28/28/28
f 29/29/29 30/30/30 31/31/31
f 32/32/32 33/33/33 34/34/34
f 35/35/35 33/33/33 32/32/32
f 36/36/36 37/37/37 38/38/38
f 36/36/36 39/39/39 37/37/37
f 40/40/40 41/41/41 42/42/42
f 41/41/41 40/40/40 43/43/43
f 44/44/44 45/45/45 46/46/46
f 47/47/47 44/44/44 48/48/48
f 49/49/49 47/47/47 50/50/50
f 49/49/49 51/51/51 45/45/45
f 52/52/52 53/53/53 54/54/54
f 54/54/54 55/55/55 52/52/52
f 56/56/56 57/57/57 58/58/58
f 58/58/58 59/59/59 56/56/56
f 60/60/60 61/61/61 62/62/62
f 62/62/62 63/63/63 60/60/60
f 64/64/64 65/65/65 66/66/66
f 67/67/67 65/65/65 64/64/64
f 68/68/68 69/69/69 70/70/70
f 66/66/66 69/69/69 68/68/68
f 71/71/71 72/72/72 73/73/73
f 74/74/74 73/73/73 72/72/72
f 75/75/75 76/76/76 77/77/77
f 76/76/76 78/78/78 77/77/77
f 79/79/79 80/80/80 75/75/75
f 80/80/80 79/79/79 81/81/81
f 82/82/82 83/83/83 84/84/84
f 82/82/82 84/84/84 85/85/85
f 84/84/84 86/86/86 85/85/85
f 83/83/83 86/86/86 84/84/84
f 87/87/87 88/88/88 3/3/3
f 89/89/89 90/90/90 3/3/3
f 91/91/91 92/92/92 3/3/3
f 93/93/93 94/94/94 3/3/3
f 95/95/95 2/2/2 96/96/96
f 96/96/96 97/97/97 95/95/95
f 95/95/95 98/98/98 3/3/3
f 99/99/99 98/98/98 100/100/100
f 100/100/100 101/101/101 99/99/99
f 99/99/99 102/102/102 3/3/3
f 103/103/103 104/104/104 105/105/105
f 105/105/105 102/102/102 103/103/103
f 105/105/105 106/106/106 3/3/3
f 1/1/1 106/106/106 107/107/107
f 107/107/107 108/108/108 1/1/1
